<svg xmlns="http://www.w3.org/2000/svg" viewBox="0 0 1600 420"><defs><linearGradient id="s" y2="1"><stop stop-color="#ff188c"/><stop offset=".45" stop-color="#7d174f"/><stop offset="1" stop-color="#07080a"/></linearGradient><filter id="n"><feTurbulence baseFrequency=".65" numOctaves="3"/><feColorMatrix values="1 0 0 0 0 0 1 0 0 0 0 0 1 0 0 0 0 .12 0"/></filter></defs><rect width="1600" height="420" fill="url(#s)"/><rect width="1600" height="420" filter="url(#n)"/><circle cx="930" cy="210" r="92" fill="#ff7748" opacity=".58"/><path d="M0 420Q260 245 520 340T1000 310T1600 350V420z" fill="#05080a"/><path d="M0 355Q260 282 520 360T1000 330T1600 370" fill="none" stroke="#ff54a1" stroke-width="7" opacity=".4"/><g fill="#07100d"><path d="M520 420q20-170 70-330l-12 330M650 420q-25-165-65-320l80 320"/></g><g transform="translate(1200 115)" fill="#08090b" stroke="#ff2b8a" stroke-width="4"><rect width="270" height="235"/><rect x="30" y="40" width="80" height="110"/><rect x="160" y="40" width="80" height="110"/><path d="M0 178h270" stroke="#47112e"/></g><g transform="translate(865 210)" fill="#090b0b" stroke="#caff31" stroke-width="3"><path d="M70 35L96 0l22 39q62 18 62 103v90H10v-90q0-84 60-107z"/><circle cx="65" cy="82" r="7" fill="#ffb51e"/><circle cx="120" cy="82" r="7" fill="#ffb51e"/><path d="M38 170q55 30 108 0" fill="none" stroke="#ff2788" stroke-width="4"/></g></svg>